REM DIRINDEX 1\2,1\3,1\4,1\5
REM DIRNAME cjc005,folder01,folder02,folder03,folder04
TITLE ""
FILE "P1Q_t_1080-1089.mp3" MP3
  TRACK 01 AUDIO
    TITLE "3:cjc005_4146"
    INDEX 01 00:00:00
  TRACK 02 AUDIO
    TITLE "0:"
    INDEX 01 00:01:07
  TRACK 03 AUDIO
    TITLE "4:cjc005_4147"
    INDEX 01 00:01:32
  TRACK 04 AUDIO
    TITLE "0:"
    INDEX 01 00:03:51
  TRACK 05 AUDIO
    TITLE "5:cjc005_4148"
    INDEX 01 00:04:01
  TRACK 06 AUDIO
    TITLE "0:"
    INDEX 01 00:07:60
  TRACK 07 AUDIO
    TITLE "3:cjc005_4149"
    INDEX 01 00:08:38
  TRACK 08 AUDIO
    TITLE "0:"
    INDEX 01 00:09:47
  TRACK 09 AUDIO
    TITLE "4:cjc005_4150"
    INDEX 01 00:09:71
  TRACK 10 AUDIO
    TITLE "0:"
    INDEX 01 00:10:72
  TRACK 11 AUDIO
    TITLE "5:cjc005_4151"
    INDEX 01 00:11:19
  TRACK 12 AUDIO
    TITLE "0:"
    INDEX 01 00:15:44
  TRACK 13 AUDIO
    TITLE "3:cjc005_4152"
    INDEX 01 00:16:20
  TRACK 14 AUDIO
    TITLE "0:"
    INDEX 01 00:17:25
  TRACK 15 AUDIO
    TITLE "4:cjc005_4153"
    INDEX 01 00:17:55
  TRACK 16 AUDIO
    TITLE "0:"
    INDEX 01 00:19:01
  TRACK 17 AUDIO
    TITLE "5:cjc005_4154"
    INDEX 01 00:19:30
  TRACK 18 AUDIO
    TITLE "0:"
    INDEX 01 00:23:53
  TRACK 19 AUDIO
    TITLE "3:cjc005_4155"
    INDEX 01 00:24:27
  TRACK 20 AUDIO
    TITLE "0:"
    INDEX 01 00:25:54
  TRACK 21 AUDIO
    TITLE "4:cjc005_4156"
    INDEX 01 00:26:03
  TRACK 22 AUDIO
    TITLE "0:"
    INDEX 01 00:27:26
  TRACK 23 AUDIO
    TITLE "5:cjc005_4157"
    INDEX 01 00:27:51
  TRACK 24 AUDIO
    TITLE "0:"
    INDEX 01 00:32:15
  TRACK 25 AUDIO
    TITLE "3:cjc005_4158"
    INDEX 01 00:32:68
  TRACK 26 AUDIO
    TITLE "0:"
    INDEX 01 00:33:69
  TRACK 27 AUDIO
    TITLE "4:cjc005_4159"
    INDEX 01 00:34:18
  TRACK 28 AUDIO
    TITLE "0:"
    INDEX 01 00:35:35
  TRACK 29 AUDIO
    TITLE "5:cjc005_4160"
    INDEX 01 00:35:63
  TRACK 30 AUDIO
    TITLE "0:"
    INDEX 01 00:40:24
  TRACK 31 AUDIO
    TITLE "3:cjc005_4161"
    INDEX 01 00:40:72
  TRACK 32 AUDIO
    TITLE "0:"
    INDEX 01 00:42:21
  TRACK 33 AUDIO
    TITLE "4:cjc005_4162"
    INDEX 01 00:42:43
  TRACK 34 AUDIO
    TITLE "0:"
    INDEX 01 00:44:03
  TRACK 35 AUDIO
    TITLE "5:cjc005_4163"
    INDEX 01 00:44:26
  TRACK 36 AUDIO
    TITLE "0:"
    INDEX 01 00:48:00
  TRACK 37 AUDIO
    TITLE "3:cjc005_4164"
    INDEX 01 00:48:48
  TRACK 38 AUDIO
    TITLE "0:"
    INDEX 01 00:50:01
  TRACK 39 AUDIO
    TITLE "4:cjc005_4165"
    INDEX 01 00:50:27
  TRACK 40 AUDIO
    TITLE "0:"
    INDEX 01 00:51:52
  TRACK 41 AUDIO
    TITLE "5:cjc005_4166"
    INDEX 01 00:52:00
  TRACK 42 AUDIO
    TITLE "0:"
    INDEX 01 00:55:59
  TRACK 43 AUDIO
    TITLE "3:cjc005_4167"
    INDEX 01 00:56:33
  TRACK 44 AUDIO
    TITLE "0:"
    INDEX 01 00:57:58
  TRACK 45 AUDIO
    TITLE "4:cjc005_4168"
    INDEX 01 00:58:11
  TRACK 46 AUDIO
    TITLE "0:"
    INDEX 01 00:59:47
  TRACK 47 AUDIO
    TITLE "5:cjc005_4169"
    INDEX 01 00:59:69
  TRACK 48 AUDIO
    TITLE "0:"
    INDEX 01 01:04:60
  TRACK 49 AUDIO
    TITLE "3:cjc005_4170"
    INDEX 01 01:05:38
  TRACK 50 AUDIO
    TITLE "0:"
    INDEX 01 01:06:59
  TRACK 51 AUDIO
    TITLE "4:cjc005_4171"
    INDEX 01 01:07:08
  TRACK 52 AUDIO
    TITLE "0:"
    INDEX 01 01:08:31
  TRACK 53 AUDIO
    TITLE "5:cjc005_4172"
    INDEX 01 01:08:50
  TRACK 54 AUDIO
    TITLE "0:"
    INDEX 01 01:13:36
  TRACK 55 AUDIO
    TITLE "3:cjc005_4173"
    INDEX 01 01:14:14
  TRACK 56 AUDIO
    TITLE "0:"
    INDEX 01 01:15:39
  TRACK 57 AUDIO
    TITLE "4:cjc005_4174"
    INDEX 01 01:15:64
  TRACK 58 AUDIO
    TITLE "0:"
    INDEX 01 01:16:71
  TRACK 59 AUDIO
    TITLE "5:cjc005_4175"
    INDEX 01 01:17:16
  TRACK 60 AUDIO
    TITLE "0:"
    INDEX 01 01:20:06
